<?xml version="1.0" encoding="UTF-8"?>
<svg version="1.1" xmlns="http://www.w3.org/2000/svg" width="1054" height="8">
<path d="M0 0 C347.82 0 695.64 0 1054 0 C1054 2.64 1054 5.28 1054 8 C706.18 8 358.36 8 0 8 C0 5.36 0 2.72 0 0 Z " fill="#4EDAFE" transform="translate(0,0)"/>
<path d="M0 0 C119.13 0 238.26 0 361 0 C355 8 355 8 351.97853863 8.99358797 C350.90241122 8.99055021 349.8262838 8.98751245 348.71754646 8.98438263 C347.46899474 9.00031102 346.22044302 9.0162394 344.9340564 9.03265047 C343.55645889 9.00982888 342.17887354 8.98626416 340.80130005 8.96203613 C339.33180551 8.96552582 337.86231583 8.9725325 336.39285266 8.98274946 C332.35821132 9.00063399 328.32526965 8.96864929 324.29084492 8.92852497 C319.93917234 8.89397892 315.58759571 8.90566806 311.23582458 8.91174316 C303.697341 8.91593817 296.1594113 8.89083741 288.62106705 8.84584045 C277.72198448 8.78082533 266.82316976 8.75998912 255.9239143 8.74993652 C238.24079103 8.73242719 220.55796297 8.67918706 202.875 8.60351562 C185.69760617 8.53008412 168.52029253 8.47345646 151.34277344 8.43945312 C150.28396635 8.43735134 149.22515926 8.43524955 148.13426711 8.43308407 C142.82254612 8.42264378 137.51082457 8.41253411 132.19910264 8.40258884 C88.1325306 8.31965414 44.06628054 8.1787482 0 8 C0 5.36 0 2.72 0 0 Z " fill="#000064" transform="translate(0,0)"/>
<path d="M0 0 C1.95566039 -0.04260603 3.9125774 -0.04117892 5.86837101 -0.0052042 C6.949139 -0.01697856 8.02990699 -0.02875292 9.14342552 -0.04088408 C12.76668628 -0.0704635 16.38723196 -0.04283395 20.01047611 -0.0153513 C22.60769364 -0.02455447 25.20490098 -0.03717644 27.80208683 -0.05296421 C34.12723014 -0.08467931 40.45159413 -0.07328526 46.77673303 -0.04663806 C51.92287848 -0.02581805 57.06881011 -0.02103058 62.21499157 -0.02765179 C62.94809388 -0.02858893 63.68119618 -0.02952607 64.43651371 -0.03049161 C65.92602059 -0.03247721 67.41552742 -0.03450521 68.90503419 -0.03657515 C82.87483769 -0.05421704 96.84421404 -0.02359588 110.81392688 0.02404367 C122.77609426 0.06379779 134.73773551 0.06473434 146.69992924 0.03640652 C160.60648503 0.00350455 174.51274122 -0.00669191 188.41932064 0.01995367 C189.90603065 0.02275349 191.39274071 0.02553133 192.8794508 0.02828693 C193.61082352 0.02966185 194.34219624 0.03103677 195.09573178 0.03245335 C200.22545409 0.04061574 205.3550116 0.03301317 210.48471737 0.01930332 C217.4100824 0.00135949 224.3345127 0.02129489 231.25975323 0.065835 C233.7932128 0.07663363 236.32675537 0.07571324 238.86019993 0.06183147 C252.82413829 -0.00667202 264.13251663 0.39222756 276.14939213 8.00393581 C276.14939213 8.33393581 276.14939213 8.66393581 276.14939213 9.00393581 C181.43939213 9.00393581 86.72939213 9.00393581 -10.85060787 9.00393581 C-4.85060787 1.00393581 -4.85060787 1.00393581 0 0 Z " fill="#0090FE" transform="translate(365.8506078720093,-1.0039358139038086)"/>
<path d="M0 0 C57.42 0 114.84 0 174 0 C167.47118362 6.52881638 157.17293192 8.62773208 148.30283904 8.74910283 C146.17017882 8.74644491 144.03912667 8.71419944 141.90673828 8.68115234 C140.34804348 8.67945511 138.7893439 8.68041923 137.23065186 8.68380737 C133.04523124 8.68551196 128.86086599 8.65051573 124.67568827 8.60836363 C120.28489602 8.57056928 115.89407313 8.56730885 111.50314331 8.56021118 C103.20895949 8.54164593 94.91525655 8.49252308 86.62128341 8.43211424 C77.17017899 8.36478827 67.71905025 8.33199486 58.26776528 8.30194163 C38.84490538 8.23941544 19.4224915 8.13404438 0 8 C0 5.36 0 2.72 0 0 Z " fill="#1645FD" transform="translate(0,0)"/>
</svg>
